<svg xmlns="http://www.w3.org/2000/svg" viewBox="0 0 1594.05 858.94"><title>Landing svg</title><g id="Layer_2" data-name="Layer 2"><path d="M417.25,368.23c19,15.35,46.51,27.85,76.85,27.85,19,0,36.8-9.09,36.8-30.69,0-17.61-12.94-27.84-38.42-43.18-27.91-16.48-65.93-46-65.93-106.27,0-83,55-130.13,120.53-130.13,40.45,0,61.89,10.8,76.85,20.46l-23,84.1c-9.3-6.82-33.57-19.32-59.86-18.18-26.29,0-37.22,13.07-37.22,26.14,0,19.89,23.06,32.39,42.88,44.89,36,22.16,62.29,52.85,62.29,104,0,96.6-61.08,135.24-124.18,135.24-46.51,0-77.25-17-93-32.39Z" transform="translate(-179.6 -85.81)"/><path d="M592,475.63l51.36-383h91.42L761.45,204c11.73,49.44,20.63,95.47,29.13,147.18h1.21c.4-40.92,4.45-77.85,11.32-130.13l17-128.43h68.76l-51.36,383H758.22L727.88,348.35c-12.13-52.28-22.25-95.47-31.55-147.75h-1.62c-2.83,38.07-10.51,96-18.6,156.27L660.33,475.63Z" transform="translate(-179.6 -85.81)"/><path d="M941.44,381.3l-29.53,94.33H832.63l136.31-383h96.68l38.83,383h-77.66l-4.86-94.33ZM1017.89,304,1013,236.4c-1.61-21.59-3.64-49.44-5.66-71.6h-.81C999.28,187,992,214.81,984.31,237l-21.43,67Z" transform="translate(-179.6 -85.81)"/><path d="M1142.87,101.16c19-7.39,51.77-11.37,85.34-11.37,25.49,0,55,2.84,77.66,17,22.25,14.2,39.64,40.34,39.64,84.67,0,57.39-25.48,86.37-62.29,104.56l-.4,2.27c15.37,10.8,21.84,35.8,25.48,65.92,4.45,38.64,7.28,94.89,13.35,111.37h-74.43c-2.83-11.36-6.47-38.07-10.51-89.21-3.64-43.76-15.37-54-39.24-54h-14.56l-19.41,143.2h-71.6ZM1193,258h25.08c28.32,0,52.18-16.48,52.18-50,0-30.12-21-38.64-42.47-38.64-11.33,0-18.2,1.13-23.06,2.27Z" transform="translate(-179.6 -85.81)"/><path d="M1515.79,323.91H1407l-8.9,66.49h121.75l-11.33,85.23H1314.36l51.37-383h188.08l-11.73,85.24H1426.4l-8.09,60.8h109.21Z" transform="translate(-179.6 -85.81)"/><path d="M229.76,563.46c18.61-7.39,50.16-11.37,81.7-11.37,25.49,0,54.61,4,77.26,20.46,23.86,17.62,39.23,46.6,39.23,93.19,0,47.74-14.56,83-38.83,108-23.86,25-57.43,36.37-95.45,36.37-11.33,0-20.63-2.27-25.89-2.84L250,937.94H179.6ZM278.3,725.41c5.66,1.71,12.54,3.41,25.08,3.41,28.71,0,52.17-21,52.17-53.42,0-36.36-20.22-43.75-40-43.75-11.73,0-19.82,1.14-24.67,2.27Z" transform="translate(-179.6 -85.81)"/><path d="M455.46,843.61l-29.52,94.33H346.66L483,554.93h96.67l38.83,383H540.81L536,843.61Zm76.45-77.29-4.85-67.62c-1.62-21.59-3.64-49.44-5.67-71.6h-.81c-7.28,22.16-14.56,50-22.24,72.17L476.9,766.32Z" transform="translate(-179.6 -85.81)"/><path d="M828.4,926c-15.78,10.23-44.5,18.76-83.73,18.76-73.62,0-138.74-51.72-138.74-175.59,0-89.79,32.77-154.57,80.49-189.8,29.94-21.59,63.1-31.25,103.55-31.25,34.38,0,59,10.22,69.17,17l-18.61,80.69c-7.68-4-28.72-12.5-55.41-12.5-24.68,0-45.71,6.82-61.89,21.6-23.46,21-38.42,57.39-38.42,105.69,0,63.08,31.14,98.88,79.68,98.88,21.84,0,41.26-4.55,56.22-13.07Z" transform="translate(-179.6 -85.81)"/><path d="M868.43,554.93h71.19L918.19,715.75h.8c7.69-13.64,16.18-26.71,23.87-39.21l74.83-121.61h93L992.61,718.59l71.19,219.35H984.52L935.58,778.83,904.84,816.9l-16.59,121H817.06Z" transform="translate(-179.6 -85.81)"/><path d="M1131.34,843.61l-29.52,94.33h-79.28l136.31-383h96.67l38.83,383h-77.66l-4.86-94.33Zm76.45-77.29-4.85-67.62c-1.62-21.59-3.64-49.44-5.67-71.6h-.81c-7.28,22.16-14.56,50-22.24,72.17l-21.44,67.05Z" transform="translate(-179.6 -85.81)"/><path d="M1527.74,917.48c-25.49,10.8-65.53,24.43-105.17,24.43-37.61,0-72.8-12.5-99.1-39.2-25.07-25.58-42.47-69.9-42.47-129.57,0-72.73,22.66-129,58.65-167.06C1374,569.71,1421,551,1473.94,551c40,0,72.4,10.23,84.94,18.75l-20.63,84.1c-13.34-8-38.83-17.62-67.14-17.62-27.1,0-51.77,8.53-70,24.44-23.86,21.59-39.63,58-39.63,103.42,0,66.49,33.16,92.63,74.83,92.63,15,0,23.05-2.85,28.71-6.25l8.5-60.81h-42.47l11.32-80.12h113.66Z" transform="translate(-179.6 -85.81)"/><path d="M1735.64,786.21H1626.83l-8.9,66.49h121.75l-11.33,85.24H1534.2l51.37-383h188.09l-11.73,85.24H1646.25L1638.16,701h109.21Z" transform="translate(-179.6 -85.81)"/></g></svg>